<?xml version="1.0" encoding="UTF-8" standalone="no"?>
<!DOCTYPE svg PUBLIC "-//W3C//DTD SVG 1.1//EN"
 "http://www.w3.org/Graphics/SVG/1.1/DTD/svg11.dtd">
<!-- Generated by graphviz version 2.38.0 (20140413.2041)
 -->
<!-- Title: G Pages: 1 -->
<svg width="626pt" height="392pt"
 viewBox="0.00 0.00 625.59 392.00" xmlns="http://www.w3.org/2000/svg" xmlns:xlink="http://www.w3.org/1999/xlink">
<g id="graph0" class="graph" transform="scale(1 1) rotate(0) translate(4 388)">
<title>G</title>
<polygon fill="white" stroke="none" points="-4,4 -4,-388 621.593,-388 621.593,4 -4,4"/>
<g id="clust1" class="cluster"><title>cluster_Global</title>
<path fill="none" stroke="gray" d="M20,-8C20,-8 597.593,-8 597.593,-8 603.593,-8 609.593,-14 609.593,-20 609.593,-20 609.593,-364 609.593,-364 609.593,-370 603.593,-376 597.593,-376 597.593,-376 20,-376 20,-376 14,-376 8,-370 8,-364 8,-364 8,-20 8,-20 8,-14 14,-8 20,-8"/>
<text text-anchor="middle" x="308.796" y="-363.2" font-family="Times New Roman,serif" font-size="11.00" fill="gray">Global</text>
</g>
<g id="clust2" class="cluster"><title>cluster_\OAuth2</title>
<path fill="none" stroke="gray" d="M180.593,-16C180.593,-16 589.593,-16 589.593,-16 595.593,-16 601.593,-22 601.593,-28 601.593,-28 601.593,-292 601.593,-292 601.593,-298 595.593,-304 589.593,-304 589.593,-304 180.593,-304 180.593,-304 174.593,-304 168.593,-298 168.593,-292 168.593,-292 168.593,-28 168.593,-28 168.593,-22 174.593,-16 180.593,-16"/>
<text text-anchor="middle" x="385.093" y="-291.2" font-family="Times New Roman,serif" font-size="11.00" fill="gray">OAuth2</text>
</g>
<g id="clust3" class="cluster"><title>cluster_\OAuth2\Interfaces</title>
<path fill="none" stroke="gray" d="M188.593,-24C188.593,-24 318.593,-24 318.593,-24 324.593,-24 330.593,-30 330.593,-36 330.593,-36 330.593,-192 330.593,-192 330.593,-198 324.593,-204 318.593,-204 318.593,-204 188.593,-204 188.593,-204 182.593,-204 176.593,-198 176.593,-192 176.593,-192 176.593,-36 176.593,-36 176.593,-30 182.593,-24 188.593,-24"/>
<text text-anchor="middle" x="253.593" y="-191.2" font-family="Times New Roman,serif" font-size="11.00" fill="gray">Interfaces</text>
</g>
<g id="clust4" class="cluster"><title>cluster_Global\SmartFactory</title>
<path fill="none" stroke="gray" d="M28,-70C28,-70 116.593,-70 116.593,-70 122.593,-70 128.593,-76 128.593,-82 128.593,-82 128.593,-166 128.593,-166 128.593,-172 122.593,-178 116.593,-178 116.593,-178 28,-178 28,-178 22,-178 16,-172 16,-166 16,-166 16,-82 16,-82 16,-76 22,-70 28,-70"/>
<text text-anchor="middle" x="72.2964" y="-165.2" font-family="Times New Roman,serif" font-size="11.00" fill="gray">SmartFactory</text>
</g>
<g id="clust5" class="cluster"><title>cluster_Global\SmartFactory\Interfaces</title>
<path fill="none" stroke="gray" d="M36,-78C36,-78 108.593,-78 108.593,-78 114.593,-78 120.593,-84 120.593,-90 120.593,-90 120.593,-138 120.593,-138 120.593,-144 114.593,-150 108.593,-150 108.593,-150 36,-150 36,-150 30,-150 24,-144 24,-138 24,-138 24,-90 24,-90 24,-84 30,-78 36,-78"/>
<text text-anchor="middle" x="72.2964" y="-137.2" font-family="Times New Roman,serif" font-size="11.00" fill="gray">Interfaces</text>
</g>
<!-- \\OAuth2\\Interfaces\\IOAuthManager -->
<g id="node1" class="node"><title>\\OAuth2\\Interfaces\\IOAuthManager</title>
<polygon fill="none" stroke="black" points="305.593,-176 201.593,-176 201.593,-140 305.593,-140 305.593,-176"/>
<text text-anchor="middle" x="253.593" y="-155.2" font-family="Courier,monospace" font-size="11.00">IOAuthManager</text>
</g>
<!-- IInitable -->
<g id="node9" class="node"><title>IInitable</title>
<ellipse fill="none" stroke="black" cx="72.2964" cy="-104" rx="40.0939" ry="18"/>
<text text-anchor="middle" x="72.2964" y="-100.3" font-family="Times New Roman,serif" font-size="14.00" fill="gray">IInitable</text>
</g>
<!-- \\OAuth2\\Interfaces\\IOAuthManager&#45;&gt;IInitable -->
<g id="edge6" class="edge"><title>\\OAuth2\\Interfaces\\IOAuthManager&#45;&gt;IInitable</title>
<path fill="none" stroke="black" d="M201.214,-142.526C174.173,-134.382 141.414,-124.515 115.817,-116.806"/>
<polygon fill="none" stroke="black" points="116.617,-113.392 106.032,-113.859 114.598,-120.094 116.617,-113.392"/>
</g>
<!-- \\OAuth2\\Interfaces\\ITokenStorage -->
<g id="node2" class="node"><title>\\OAuth2\\Interfaces\\ITokenStorage</title>
<polygon fill="none" stroke="black" points="305.593,-122 201.593,-122 201.593,-86 305.593,-86 305.593,-122"/>
<text text-anchor="middle" x="253.593" y="-101.2" font-family="Courier,monospace" font-size="11.00">ITokenStorage</text>
</g>
<!-- \\OAuth2\\Interfaces\\ITokenStorage&#45;&gt;IInitable -->
<g id="edge7" class="edge"><title>\\OAuth2\\Interfaces\\ITokenStorage&#45;&gt;IInitable</title>
<path fill="none" stroke="black" d="M201.214,-104C176.585,-104 147.213,-104 122.83,-104"/>
<polygon fill="none" stroke="black" points="122.713,-100.5 112.713,-104 122.713,-107.5 122.713,-100.5"/>
</g>
<!-- \\OAuth2\\Interfaces\\IUserAuthenticator -->
<g id="node3" class="node"><title>\\OAuth2\\Interfaces\\IUserAuthenticator</title>
<polygon fill="none" stroke="black" points="322.593,-68 184.593,-68 184.593,-32 322.593,-32 322.593,-68"/>
<text text-anchor="middle" x="253.593" y="-47.2" font-family="Courier,monospace" font-size="11.00">IUserAuthenticator</text>
</g>
<!-- \\OAuth2\\Interfaces\\IUserAuthenticator&#45;&gt;IInitable -->
<g id="edge8" class="edge"><title>\\OAuth2\\Interfaces\\IUserAuthenticator&#45;&gt;IInitable</title>
<path fill="none" stroke="black" d="M192.391,-68.1314C167.312,-75.6847 138.774,-84.2797 115.922,-91.1623"/>
<polygon fill="none" stroke="black" points="114.746,-87.8611 106.18,-94.0963 116.764,-94.5637 114.746,-87.8611"/>
</g>
<!-- \\OAuth2\\InvalidCredentialsException -->
<g id="node4" class="node"><title>\\OAuth2\\InvalidCredentialsException</title>
<polygon fill="none" stroke="black" points="593.593,-276 394.593,-276 394.593,-240 593.593,-240 593.593,-276"/>
<text text-anchor="middle" x="494.093" y="-255.2" font-family="Courier,monospace" font-size="11.00">InvalidCredentialsException</text>
</g>
<!-- Exception -->
<g id="node10" class="node"><title>Exception</title>
<ellipse fill="none" stroke="black" cx="253.593" cy="-330" rx="47.3916" ry="18"/>
<text text-anchor="middle" x="253.593" y="-326.3" font-family="Times New Roman,serif" font-size="14.00" fill="gray">Exception</text>
</g>
<!-- \\OAuth2\\InvalidCredentialsException&#45;&gt;Exception -->
<g id="edge1" class="edge"><title>\\OAuth2\\InvalidCredentialsException&#45;&gt;Exception</title>
<path fill="none" stroke="black" d="M433.217,-276.076C392.304,-288.427 338.872,-304.557 301.142,-315.947"/>
<polygon fill="none" stroke="black" points="299.986,-312.64 291.424,-318.881 302.009,-319.342 299.986,-312.64"/>
</g>
<!-- \\OAuth2\\InvalidTokenException -->
<g id="node5" class="node"><title>\\OAuth2\\InvalidTokenException</title>
<polygon fill="none" stroke="black" points="573.093,-222 415.093,-222 415.093,-186 573.093,-186 573.093,-222"/>
<text text-anchor="middle" x="494.093" y="-201.2" font-family="Courier,monospace" font-size="11.00">InvalidTokenException</text>
</g>
<!-- \\OAuth2\\InvalidTokenException&#45;&gt;Exception -->
<g id="edge2" class="edge"><title>\\OAuth2\\InvalidTokenException&#45;&gt;Exception</title>
<path fill="none" stroke="black" d="M416.834,-222.022C409.185,-224.681 401.647,-227.666 394.593,-231 351.665,-251.289 307.883,-284.727 280.975,-307.053"/>
<polygon fill="none" stroke="black" points="278.591,-304.485 273.186,-313.598 283.094,-309.844 278.591,-304.485"/>
</g>
<!-- \\OAuth2\\MissingParametersException -->
<g id="node6" class="node"><title>\\OAuth2\\MissingParametersException</title>
<polygon fill="none" stroke="black" points="590.093,-168 398.093,-168 398.093,-132 590.093,-132 590.093,-168"/>
<text text-anchor="middle" x="494.093" y="-147.2" font-family="Courier,monospace" font-size="11.00">MissingParametersException</text>
</g>
<!-- \\OAuth2\\MissingParametersException&#45;&gt;Exception -->
<g id="edge3" class="edge"><title>\\OAuth2\\MissingParametersException&#45;&gt;Exception</title>
<path fill="none" stroke="black" d="M412.208,-168.066C406.065,-170.663 400.115,-173.625 394.593,-177 340.73,-209.923 294.977,-269.517 271.491,-303.805"/>
<polygon fill="none" stroke="black" points="268.417,-302.104 265.738,-312.354 274.225,-306.012 268.417,-302.104"/>
</g>
<!-- \\OAuth2\\OAuthManager -->
<g id="node7" class="node"><title>\\OAuth2\\OAuthManager</title>
<polygon fill="none" stroke="black" points="543.093,-60 445.093,-60 445.093,-24 543.093,-24 543.093,-60"/>
<text text-anchor="middle" x="494.093" y="-39.2" font-family="Courier,monospace" font-size="11.00">OAuthManager</text>
</g>
<!-- \\OAuth2\\OAuthManager&#45;&gt;\\OAuth2\\Interfaces\\IOAuthManager -->
<g id="edge4" class="edge"><title>\\OAuth2\\OAuthManager&#45;&gt;\\OAuth2\\Interfaces\\IOAuthManager</title>
<path fill="none" stroke="black" stroke-dasharray="1,5" d="M444.846,-50.1309C428.208,-54.2304 409.916,-60.2561 394.593,-69 360.196,-88.6275 364.242,-110.117 330.593,-131 325.834,-133.953 320.707,-136.643 315.442,-139.079"/>
<polygon fill="none" stroke="black" points="313.675,-136.03 305.869,-143.193 316.438,-142.461 313.675,-136.03"/>
</g>
<!-- \\OAuth2\\TokenExpiredException -->
<g id="node8" class="node"><title>\\OAuth2\\TokenExpiredException</title>
<polygon fill="none" stroke="black" points="573.093,-114 415.093,-114 415.093,-78 573.093,-78 573.093,-114"/>
<text text-anchor="middle" x="494.093" y="-93.2" font-family="Courier,monospace" font-size="11.00">TokenExpiredException</text>
</g>
<!-- \\OAuth2\\TokenExpiredException&#45;&gt;Exception -->
<g id="edge5" class="edge"><title>\\OAuth2\\TokenExpiredException&#45;&gt;Exception</title>
<path fill="none" stroke="black" d="M414.867,-111.746C407.685,-114.847 400.79,-118.558 394.593,-123 377.258,-135.423 303.962,-250.877 270.895,-303.765"/>
<polygon fill="none" stroke="black" points="267.904,-301.947 265.579,-312.283 273.843,-305.653 267.904,-301.947"/>
</g>
</g>
</svg>
