<?xml version="1.0" encoding="UTF-8" standalone="no"?>
<!DOCTYPE svg PUBLIC "-//W3C//DTD SVG 1.1//EN"
 "http://www.w3.org/Graphics/SVG/1.1/DTD/svg11.dtd">
<!-- Generated by graphviz version 2.38.0 (20140413.2041)
 -->
<!-- Title: G Pages: 1 -->
<svg width="525pt" height="276pt"
 viewBox="0.00 0.00 524.59 276.00" xmlns="http://www.w3.org/2000/svg" xmlns:xlink="http://www.w3.org/1999/xlink">
<g id="graph0" class="graph" transform="scale(1 1) rotate(0) translate(4 272)">
<title>G</title>
<polygon fill="white" stroke="none" points="-4,4 -4,-272 520.593,-272 520.593,4 -4,4"/>
<g id="clust1" class="cluster"><title>cluster_Global</title>
<path fill="none" stroke="gray" d="M20,-8C20,-8 496.593,-8 496.593,-8 502.593,-8 508.593,-14 508.593,-20 508.593,-20 508.593,-248 508.593,-248 508.593,-254 502.593,-260 496.593,-260 496.593,-260 20,-260 20,-260 14,-260 8,-254 8,-248 8,-248 8,-20 8,-20 8,-14 14,-8 20,-8"/>
<text text-anchor="middle" x="258.296" y="-247.2" font-family="Times New Roman,serif" font-size="11.00" fill="gray">Global</text>
</g>
<g id="clust2" class="cluster"><title>cluster_\OAuth2</title>
<path fill="none" stroke="gray" d="M180.593,-16C180.593,-16 488.593,-16 488.593,-16 494.593,-16 500.593,-22 500.593,-28 500.593,-28 500.593,-220 500.593,-220 500.593,-226 494.593,-232 488.593,-232 488.593,-232 180.593,-232 180.593,-232 174.593,-232 168.593,-226 168.593,-220 168.593,-220 168.593,-28 168.593,-28 168.593,-22 174.593,-16 180.593,-16"/>
<text text-anchor="middle" x="334.593" y="-219.2" font-family="Times New Roman,serif" font-size="11.00" fill="gray">OAuth2</text>
</g>
<g id="clust3" class="cluster"><title>cluster_\OAuth2\Interfaces</title>
<path fill="none" stroke="gray" d="M188.593,-24C188.593,-24 318.593,-24 318.593,-24 324.593,-24 330.593,-30 330.593,-36 330.593,-36 330.593,-192 330.593,-192 330.593,-198 324.593,-204 318.593,-204 318.593,-204 188.593,-204 188.593,-204 182.593,-204 176.593,-198 176.593,-192 176.593,-192 176.593,-36 176.593,-36 176.593,-30 182.593,-24 188.593,-24"/>
<text text-anchor="middle" x="253.593" y="-191.2" font-family="Times New Roman,serif" font-size="11.00" fill="gray">Interfaces</text>
</g>
<g id="clust4" class="cluster"><title>cluster_Global\SmartFactory</title>
<path fill="none" stroke="gray" d="M28,-70C28,-70 116.593,-70 116.593,-70 122.593,-70 128.593,-76 128.593,-82 128.593,-82 128.593,-166 128.593,-166 128.593,-172 122.593,-178 116.593,-178 116.593,-178 28,-178 28,-178 22,-178 16,-172 16,-166 16,-166 16,-82 16,-82 16,-76 22,-70 28,-70"/>
<text text-anchor="middle" x="72.2964" y="-165.2" font-family="Times New Roman,serif" font-size="11.00" fill="gray">SmartFactory</text>
</g>
<g id="clust5" class="cluster"><title>cluster_Global\SmartFactory\Interfaces</title>
<path fill="none" stroke="gray" d="M36,-78C36,-78 108.593,-78 108.593,-78 114.593,-78 120.593,-84 120.593,-90 120.593,-90 120.593,-138 120.593,-138 120.593,-144 114.593,-150 108.593,-150 108.593,-150 36,-150 36,-150 30,-150 24,-144 24,-138 24,-138 24,-90 24,-90 24,-84 30,-78 36,-78"/>
<text text-anchor="middle" x="72.2964" y="-137.2" font-family="Times New Roman,serif" font-size="11.00" fill="gray">Interfaces</text>
</g>
<!-- \\OAuth2\\Interfaces\\IOAuthManager -->
<g id="node1" class="node"><title>\\OAuth2\\Interfaces\\IOAuthManager</title>
<polygon fill="none" stroke="black" points="305.593,-176 201.593,-176 201.593,-140 305.593,-140 305.593,-176"/>
<text text-anchor="middle" x="253.593" y="-155.2" font-family="Courier,monospace" font-size="11.00">IOAuthManager</text>
</g>
<!-- IInitable -->
<g id="node5" class="node"><title>IInitable</title>
<ellipse fill="none" stroke="black" cx="72.2964" cy="-104" rx="40.0939" ry="18"/>
<text text-anchor="middle" x="72.2964" y="-100.3" font-family="Times New Roman,serif" font-size="14.00" fill="gray">IInitable</text>
</g>
<!-- \\OAuth2\\Interfaces\\IOAuthManager&#45;&gt;IInitable -->
<g id="edge2" class="edge"><title>\\OAuth2\\Interfaces\\IOAuthManager&#45;&gt;IInitable</title>
<path fill="none" stroke="black" d="M201.214,-142.526C174.173,-134.382 141.414,-124.515 115.817,-116.806"/>
<polygon fill="none" stroke="black" points="116.617,-113.392 106.032,-113.859 114.598,-120.094 116.617,-113.392"/>
</g>
<!-- \\OAuth2\\Interfaces\\ITokenStorage -->
<g id="node2" class="node"><title>\\OAuth2\\Interfaces\\ITokenStorage</title>
<polygon fill="none" stroke="black" points="305.593,-122 201.593,-122 201.593,-86 305.593,-86 305.593,-122"/>
<text text-anchor="middle" x="253.593" y="-101.2" font-family="Courier,monospace" font-size="11.00">ITokenStorage</text>
</g>
<!-- \\OAuth2\\Interfaces\\ITokenStorage&#45;&gt;IInitable -->
<g id="edge3" class="edge"><title>\\OAuth2\\Interfaces\\ITokenStorage&#45;&gt;IInitable</title>
<path fill="none" stroke="black" d="M201.214,-104C176.585,-104 147.213,-104 122.83,-104"/>
<polygon fill="none" stroke="black" points="122.713,-100.5 112.713,-104 122.713,-107.5 122.713,-100.5"/>
</g>
<!-- \\OAuth2\\Interfaces\\IUserAuthenticator -->
<g id="node3" class="node"><title>\\OAuth2\\Interfaces\\IUserAuthenticator</title>
<polygon fill="none" stroke="black" points="322.593,-68 184.593,-68 184.593,-32 322.593,-32 322.593,-68"/>
<text text-anchor="middle" x="253.593" y="-47.2" font-family="Courier,monospace" font-size="11.00">IUserAuthenticator</text>
</g>
<!-- \\OAuth2\\Interfaces\\IUserAuthenticator&#45;&gt;IInitable -->
<g id="edge4" class="edge"><title>\\OAuth2\\Interfaces\\IUserAuthenticator&#45;&gt;IInitable</title>
<path fill="none" stroke="black" d="M192.391,-68.1314C167.312,-75.6847 138.774,-84.2797 115.922,-91.1623"/>
<polygon fill="none" stroke="black" points="114.746,-87.8611 106.18,-94.0963 116.764,-94.5637 114.746,-87.8611"/>
</g>
<!-- \\OAuth2\\OAuthManager -->
<g id="node4" class="node"><title>\\OAuth2\\OAuthManager</title>
<polygon fill="none" stroke="black" points="492.593,-176 394.593,-176 394.593,-140 492.593,-140 492.593,-176"/>
<text text-anchor="middle" x="443.593" y="-155.2" font-family="Courier,monospace" font-size="11.00">OAuthManager</text>
</g>
<!-- \\OAuth2\\OAuthManager&#45;&gt;\\OAuth2\\Interfaces\\IOAuthManager -->
<g id="edge1" class="edge"><title>\\OAuth2\\OAuthManager&#45;&gt;\\OAuth2\\Interfaces\\IOAuthManager</title>
<path fill="none" stroke="black" stroke-dasharray="1,5" d="M394.178,-158C370.369,-158 341.411,-158 316.056,-158"/>
<polygon fill="none" stroke="black" points="315.804,-154.5 305.804,-158 315.804,-161.5 315.804,-154.5"/>
</g>
</g>
</svg>
